<?xml version="1.0" encoding="utf-8"?>
<!-- Generator: Adobe Illustrator 22.0.1, SVG Export Plug-In . SVG Version: 6.00 Build 0)  -->
<svg version="1.1" id="Layer_1" xmlns="http://www.w3.org/2000/svg" xmlns:xlink="http://www.w3.org/1999/xlink" x="0px" y="0px"
	 viewBox="0 0 382.7 382.7" style="enable-background:new 0 0 382.7 382.7;" xml:space="preserve">
<style type="text/css">
	.st0{fill:#231F20;}
	.st1{fill:#FFFFFF;}
</style>
<g>
	<g>
		<path class="st0" d="M371.2,49.6H19.7c-0.6,0-1-0.4-1-1s0.4-1,1-1h351.6c0.6,0,1,0.4,1,1S371.8,49.6,371.2,49.6z"/>
	</g>
	<g>
		<path class="st0" d="M371.2,111.4H19.7c-0.6,0-1-0.4-1-1s0.4-1,1-1h351.6c0.6,0,1,0.4,1,1S371.8,111.4,371.2,111.4z"/>
	</g>
	<g>
		<path class="st0" d="M371.2,161.2H179c-0.1,0-0.2-0.1-0.2-0.2s0.1-0.2,0.2-0.2h192.3c0.1,0,0.2,0.1,0.2,0.2
			S371.4,161.2,371.2,161.2z"/>
	</g>
	<g>
		<path class="st0" d="M371.2,279.9H19.7c-0.6,0-1-0.4-1-1s0.4-1,1-1h351.6c0.6,0,1,0.4,1,1S371.8,279.9,371.2,279.9z"/>
	</g>
	<g>
		<path class="st0" d="M287.6,375.5c-0.1,0-0.2-0.1-0.2-0.2V7.1c0-0.1,0.1-0.2,0.2-0.2s0.2,0.1,0.2,0.2v368.1
			C287.8,375.3,287.7,375.5,287.6,375.5z"/>
	</g>
	<g>
		<path class="st0" d="M179,376.2c-0.6,0-1-0.4-1-1V7.1c0-0.6,0.4-1,1-1s1,0.4,1,1v368.1C180,375.8,179.5,376.2,179,376.2z"/>
	</g>
	<g>
		<path class="st0" d="M92.8,279.9c-0.6,0-1-0.4-1-1V7.4c0-0.6,0.4-1,1-1s1,0.4,1,1v271.5C93.8,279.5,93.3,279.9,92.8,279.9z"/>
	</g>
	<g>
		<path class="st0" d="M201.5,289v6.5h-1v-0.8h-4.2v4.6h-1v-4.6h-4.2v0.9h-0.9V289h5.1v-2.5h1v2.5H201.5z M195.5,293.8v-3.8h-4.2
			v3.8H195.5z M200.6,293.8v-3.8h-4.2v3.8H200.6z"/>
		<path class="st0" d="M201.4,304.1v9.9h-1v-1h-9.9v-8.8h1v7.9h4v-10.6h1V312h4v-7.9H201.4z"/>
		<path class="st0" d="M195.6,325.4l0.2,0.8c-2,0.9-4.2,1.8-5.8,2.4l-0.4-0.9c1-0.4,2.5-0.9,4-1.5v-5.7h-3.6v-0.9h3.6v-3.3h1v9.6
			L195.6,325.4z M200.3,327.2c0.7,0,0.7-0.7,0.8-3.4c0.3,0.2,0.6,0.4,0.9,0.4c-0.1,2.9-0.4,3.9-1.7,3.9h-1.9c-1.2,0-1.5-0.4-1.5-1.7
			v-10.2h1v3.3h4v0.9h-4v6c0,0.7,0.1,0.8,0.7,0.8H200.3z"/>
		<path class="st0" d="M201.3,332.3c-0.4,1.4-1.2,2.7-2.1,3.7c0.9,0.9,2,1.6,3.2,2.1c-0.2,0.2-0.4,0.5-0.6,0.8
			c-0.2-0.1-0.4-0.2-0.5-0.2v4.6h-0.9v-0.5h-3.7v0.5H196v-4.7c-0.3,0.2-0.6,0.3-0.9,0.4c-0.1-0.2-0.4-0.5-0.5-0.7l0.1,0h-1.5v2.6
			l1.9-0.4l0.1,0.8c-1.9,0.5-3.9,0.9-5.3,1.3l-0.2-0.9l0.7-0.2v-4.8h0.8v4.6l1.1-0.3v-5.8h-2v-4.2h4.5v3.8c1.1-1.1,2-2.7,2.6-4.4
			l0.9,0.2c-0.1,0.4-0.3,0.8-0.5,1.2h2.8l0.2,0L201.3,332.3z M191.1,334.7h2.8v-2.6h-2.8V334.7z M194.9,338.3
			c1.1-0.5,2.3-1.3,3.3-2.3c-0.5-0.7-1-1.4-1.4-2c-0.4,0.6-0.9,1.2-1.4,1.7c-0.1-0.1-0.4-0.4-0.7-0.5v0.3h-1.7v2.1h1.8V338.3z
			 M200.8,338.4c-0.8-0.5-1.5-1.1-2.1-1.7c-0.7,0.7-1.4,1.3-2.2,1.7H200.8z M200.5,342.1v-2.8h-3.7v2.8H200.5z M197.4,332.9
			l-0.1,0.3c0.4,0.7,0.8,1.5,1.5,2.2c0.6-0.7,1.2-1.6,1.5-2.5H197.4z"/>
		<path class="st0" d="M202.4,351.1v1h-12.7v-1H202.4z"/>
		<path class="st0" d="M195,369.7c-1.2,0.2-2.4,0.4-3.4,0.6v2.5h-0.9v-2.3l-1,0.2l-0.2-0.9c0.4,0,0.8-0.1,1.2-0.2v-8.2l0,0
			c1.3-0.3,2.8-0.8,3.6-1.3l0.8,0.7c-1,0.4-2.3,0.9-3.5,1.2v1.6h3.2v0.8h-3.2v2h3.2v0.8h-3.2v2.1c1.1-0.2,2.2-0.4,3.4-0.5L195,369.7
			z M201.3,366.6c-0.4,1.7-1.1,2.9-2.1,3.9c0.9,0.7,1.9,1.2,3.2,1.5c-0.2,0.2-0.5,0.5-0.6,0.8c-1.2-0.4-2.3-1-3.2-1.7
			c-1,0.8-2.3,1.4-3.6,1.8c-0.1-0.2-0.3-0.6-0.5-0.8c1.3-0.3,2.5-0.8,3.4-1.6c-0.8-0.9-1.5-1.9-1.9-3.1l0.4-0.1h-0.9v-0.8h5l0.1,0
			L201.3,366.6z M197.4,362.3c0,1.2-0.3,2.8-1.8,3.8c-0.1-0.2-0.5-0.5-0.7-0.6c1.4-0.9,1.6-2.2,1.6-3.2v-1.7h3.8v3.6
			c0,0.4,0,0.5,0.3,0.5h1c0.2,0,0.5,0,0.6-0.1c0,0.2,0,0.5,0.1,0.7c-0.2,0.1-0.4,0.1-0.7,0.1h-1.1c-0.9,0-1-0.3-1-1.2v-2.7h-2V362.3
			z M196.8,367.3c0.4,1,1,1.9,1.8,2.7c0.7-0.7,1.3-1.6,1.6-2.7H196.8z"/>
	</g>
	<g>
		<path class="st0" d="M305.3,337.3c1,2.7,2.9,4.8,5.8,5.6c-0.2,0.2-0.5,0.6-0.6,0.8c-2.8-0.9-4.7-2.9-5.8-5.8
			c-0.6,2.1-2.1,4.2-5.7,5.8c-0.1-0.2-0.4-0.6-0.6-0.8c3.7-1.5,5-3.6,5.5-5.6h-5.2v-0.9h5.4c0.1-0.6,0.1-1.1,0.1-1.7V333h-5v-0.9
			h11.1v0.9H305v1.7c0,0.5,0,1.1-0.1,1.7h5.8v0.9H305.3z"/>
		<path class="st0" d="M300.4,352c-0.5-0.5-1.5-1.2-2.3-1.7l0.5-0.6c0.7,0.5,1.8,1.2,2.3,1.6L300.4,352z M301.4,353.7
			c-0.6,1.4-1.4,3.2-2,4.5l-0.8-0.6c0.6-1.1,1.5-2.9,2.1-4.5L301.4,353.7z M301.3,348.4c-0.5-0.5-1.5-1.3-2.3-1.8l0.6-0.6
			c0.8,0.5,1.8,1.2,2.3,1.7L301.3,348.4z M306.4,352.2v1.2h3.7v0.8h-3.7v1.3h4.4v0.8h-4.4v2.2h-0.9v-2.2h-4v-0.8h4v-1.3h-3.4v-0.8
			h3.4v-1.2h-3.1v-0.8h3.1v-1.3h-3.9v-0.8h3.9V348h-3.1v-0.8h3.1v-1.5h0.9v1.5h3.4v2.1h1.1v0.8h-1.1v2.1H306.4z M306.4,349.3h2.5
			V348h-2.5V349.3z M306.4,351.5h2.5v-1.3h-2.5V351.5z"/>
		<path class="st0" d="M301.9,363.5c-0.3,0.7-0.8,1.4-1.2,2.1v7.6h-0.9v-6.5c-0.4,0.5-0.9,1-1.3,1.3c-0.1-0.2-0.4-0.6-0.6-0.8
			c1.2-1,2.4-2.5,3.2-4L301.9,363.5z M301.4,360.7c-0.7,1.1-1.8,2.4-2.8,3.2c-0.1-0.2-0.4-0.5-0.5-0.7c1-0.7,2-1.9,2.5-2.8
			L301.4,360.7z M307.2,371.4c-2.1,0.3-4.2,0.6-5.7,0.8l-0.1-0.9c0.7-0.1,1.5-0.2,2.5-0.3v-2.3h-2.1v-0.8h2.1v-1.8h0.9v1.8h2.1v0.8
			h-2.1v2.2l2.5-0.3L307.2,371.4z M303.8,363.1h-1.9v-0.8h1.9v-1.8h0.9v1.8h1.9v0.8h-1.9v2h2.2v0.8h-5.3V365h2.2V363.1z M311,365.9
			h-1.3v6.2c0,0.6-0.1,0.8-0.5,1c-0.4,0.2-1.1,0.2-2.1,0.2c-0.1-0.3-0.2-0.7-0.3-0.9c0.8,0,1.5,0,1.7,0c0.2,0,0.3-0.1,0.3-0.3v-6.2
			h-1.6V365h3.8V365.9z M310.8,362.1h-3.5v-0.8h3.5V362.1z"/>
	</g>
	<g>
		<path class="st0" d="M320.1,259.5v2h4.6v5c0,0.6-0.1,0.9-0.6,1c-0.5,0.2-1.2,0.2-2.5,0.2c0-0.3-0.2-0.7-0.3-0.9c1,0,1.8,0,2.1,0
			c0.2,0,0.3-0.1,0.3-0.3v-4h-3.6v6.9h-1v-6.9h-3.4v5.3h-0.9v-6.2h4.3v-2h-5.7v-0.9h6.1c-0.2-0.5-0.6-1.3-1-1.9l0.9-0.3
			c0.4,0.7,0.9,1.5,1.1,2.1l-0.3,0.1h5.7v0.9H320.1z"/>
		<path class="st0" d="M335.8,264.4c0.7,2.3,2.1,3.9,3.4,3.9c0.4,0,0.6-0.6,0.7-2.1c0.2,0.2,0.6,0.4,0.8,0.4c-0.2,2-0.5,2.5-1.5,2.5
			c-1.9,0-3.6-2-4.4-4.8h-4.3v3.7l3.4-0.8c0,0.2,0.1,0.6,0.1,0.8c-3.8,1-4.3,1.2-4.6,1.3c-0.1-0.2-0.3-0.7-0.4-0.8
			c0.2-0.1,0.6-0.4,0.6-1v-10.3h9.9v4h-4.2c0,0.8,0.2,1.5,0.3,2.2h4.9v0.9H335.8z M330.5,258.2v2.2h8v-2.2H330.5z M334.6,263.5
			c-0.2-0.7-0.3-1.4-0.3-2.2h-3.8v2.2H334.6z"/>
		<path class="st0" d="M349.9,261.5c1,3.2,2.8,5.7,5.6,6.9c-0.2,0.2-0.5,0.6-0.7,0.9c-2.7-1.3-4.6-3.9-5.7-7.2
			c-0.7,2.8-2.2,5.6-5.7,7.2c-0.2-0.3-0.5-0.6-0.7-0.8c3.5-1.5,4.9-4.3,5.5-7H343v-1h5.4c0.2-1.5,0.2-2.9,0.2-4h1c0,1.1,0,2.5-0.2,4
			h5.8v1H349.9z"/>
		<path class="st0" d="M360.8,263.3c-0.3,1.2-0.7,2.6-1.2,3.6c0.3,0.1,0.6,0.4,1.2,0.8c1,0.6,2.3,0.7,3.9,0.7c1.8,0,4.1-0.1,5.6-0.3
			c-0.1,0.2-0.3,0.7-0.3,1c-1,0.1-3.7,0.2-5.4,0.2c-1.9,0-3.1-0.2-4.1-0.8c-0.6-0.4-1.1-0.8-1.4-0.8c-0.3,0-0.8,0.9-1.2,1.8
			l-0.6-0.8c0.5-0.7,1-1.3,1.4-1.6c0.4-0.8,0.8-2,1-3h-1.8c0.4-0.8,0.9-2,1.2-3.2h-1.6V260h2.8c-0.4,1-0.8,2.2-1.2,3.2h1l0.2,0
			L360.8,263.3z M358.9,259.2c-0.2-0.6-0.5-1.6-0.7-2.3l0.8-0.2c0.2,0.7,0.6,1.6,0.7,2.2L358.9,259.2z M364.6,260.4
			c0.1-0.4,0.3-0.8,0.3-1.2h-3.8v-0.8h2.4c-0.2-0.4-0.6-1.1-0.9-1.5l0.7-0.3c0.4,0.5,0.8,1.1,1,1.5l-0.6,0.3h2.6
			c0.4-0.5,0.9-1.3,1.1-1.9l0.9,0.3c-0.3,0.5-0.7,1.1-1.1,1.6h2.7v0.8h-4.1c-0.2,0.4-0.3,0.8-0.5,1.2h3.4v6.5h-6.5v-6.5H364.6z
			 M367.9,261.1h-4.7v1.2h4.7V261.1z M367.9,263h-4.7v1.2h4.7V263z M367.9,265h-4.7v1.2h4.7V265z"/>
	</g>
	<g>
		<path class="st0" d="M244.6,182.6c0,0.9-0.2,1.4-0.7,1.7c-0.5,0.3-1.3,0.3-2.4,0.3c-0.1-0.5-0.3-1.3-0.5-1.8c0.7,0,1.4,0,1.6,0
			c0.2,0,0.3-0.1,0.3-0.3v-3h-2.4c-0.2,1.8-0.7,3.8-1.7,5.2c-0.3-0.3-1-0.7-1.5-0.9c-0.1,0.1-0.2,0.2-0.3,0.3
			c-0.5,0.3-1.2,0.3-2.1,0.3c0-0.5-0.3-1.2-0.5-1.6c0.5,0,1.1,0,1.3,0c0.2,0,0.2-0.1,0.2-0.3v-3h-2c-0.2,1.8-0.6,3.8-1.5,5.2
			c-0.3-0.3-1-0.7-1.5-0.9c1.3-2,1.4-4.9,1.4-7.2v-5.5h5.3v11.4c0,0.4,0,0.7-0.1,1c1.4-2.1,1.5-5,1.5-7.3v-5.1h5.7V182.6z
			 M235.9,178v-1.8H234v0.5c0,0.4,0,0.8,0,1.3H235.9z M234,172.9v1.7h1.9v-1.7H234z M242.9,178v-1.8h-2.2v0.1c0,0.5,0,1.1,0,1.7
			H242.9z M240.7,172.9v1.7h2.2v-1.7H240.7z"/>
		<path class="st0" d="M260.9,173.6h-5.2v8.6c0,1.2-0.3,1.8-1.1,2.1c-0.8,0.3-2.1,0.4-3.7,0.4c-0.1-0.6-0.5-1.6-0.9-2.1
			c1.2,0.1,2.6,0.1,3,0.1c0.4,0,0.5-0.1,0.5-0.4v-8.5h-6.1v-1.9h13.5V173.6z"/>
		<path class="st0" d="M223.1,194.9c0,2.2-1.6,3.7-3.6,3.7c-1.1,0-2-0.4-2.5-1.1v4h-1.2v-10.2h1.2v1c0.6-0.7,1.4-1.1,2.5-1.1
			C221.5,191.2,223.1,192.8,223.1,194.9z M216.9,194.9c0,1.5,1,2.6,2.5,2.6c1.5,0,2.5-1.2,2.5-2.6s-1-2.6-2.5-2.6
			C217.9,192.4,216.9,193.5,216.9,194.9z"/>
		<path class="st0" d="M232.2,194.9c0,2.1-1.6,3.7-3.8,3.7s-3.8-1.6-3.8-3.7c0-2.1,1.6-3.7,3.8-3.7S232.2,192.8,232.2,194.9z
			 M225.9,194.9c0,1.5,1.1,2.6,2.5,2.6c1.4,0,2.5-1.1,2.5-2.6c0-1.5-1.1-2.6-2.5-2.6C227,192.4,225.9,193.4,225.9,194.9z"/>
		<path class="st0" d="M240.9,194.1v4.5h-1.2v-4.1c0-1.3-0.7-2.1-2-2.1c-1.2,0-2.1,0.8-2.1,2.1v4h-1.2v-7.2h1.2v0.9
			c0.6-0.8,1.5-1.1,2.4-1.1C239.7,191.2,240.9,192.4,240.9,194.1z"/>
		<path class="st0" d="M253.1,192.3v-4.7h1.2v10.9h-1.2v-1c-0.6,0.7-1.4,1.1-2.5,1.1c-2,0-3.6-1.6-3.6-3.7c0-2.2,1.6-3.7,3.6-3.7
			C251.7,191.2,252.5,191.6,253.1,192.3z M248.2,194.9c0,1.4,1,2.6,2.5,2.6c1.5,0,2.5-1.1,2.5-2.6c0-1.5-1-2.6-2.5-2.6
			C249.2,192.4,248.2,193.5,248.2,194.9z"/>
		<path class="st0" d="M258.4,188.8c0,0.5-0.4,0.9-0.9,0.9c-0.5,0-0.9-0.4-0.9-0.9c0-0.5,0.4-0.9,0.9-0.9
			C258.1,187.9,258.4,188.3,258.4,188.8z M258.2,198.5H257v-7.2h1.2V198.5z"/>
		<path class="st0" d="M267.4,194.1v4.5h-1.2v-4.1c0-1.3-0.7-2.1-2-2.1c-1.2,0-2.1,0.8-2.1,2.1v4h-1.2v-7.2h1.2v0.9
			c0.6-0.8,1.5-1.1,2.4-1.1C266.2,191.2,267.4,192.4,267.4,194.1z"/>
		<path class="st0" d="M275.4,192.3v-1h1.2v6.7c0,2.3-1.6,3.6-3.8,3.6c-1.1,0-2.3-0.3-3-0.9l0.5-1c0.7,0.5,1.5,0.8,2.5,0.8
			c1.5,0,2.6-0.9,2.6-2.5v-0.6c-0.5,0.7-1.4,1.1-2.5,1.1c-2,0-3.6-1.5-3.6-3.7c0-2.2,1.5-3.7,3.6-3.7
			C274.1,191.2,274.9,191.6,275.4,192.3z M270.7,194.9c0,1.4,1,2.5,2.4,2.5c1.4,0,2.4-1.1,2.4-2.5c0-1.4-1-2.5-2.4-2.5
			C271.6,192.4,270.7,193.5,270.7,194.9z"/>
	</g>
	<g>
		<path class="st0" d="M325.2,96.1c-0.9,0.7-2.1,1.4-3.1,1.9c1.1,0.8,2.5,1.4,4.1,1.7c-0.2,0.2-0.4,0.6-0.6,0.8
			c-3.2-0.7-5.5-2.4-6.7-5.1h-2.3v3.9l3.9-1c0,0.2,0,0.6,0,0.8c-4,1-4.7,1.2-5,1.4l-0.1,0c-0.1-0.2-0.3-0.7-0.4-0.9
			c0.3-0.1,0.7-0.4,0.7-1v-3.3h-2.3v-0.9h2.5v-6.2h8.6v0.8h-7.7v1.3h7.2v0.8h-7.2v1.2h7.2v0.8h-7.2v1.3h9v0.9h-6
			c0.4,0.8,0.9,1.5,1.6,2.1c1-0.5,2.2-1.3,3-1.9L325.2,96.1z"/>
		<path class="st0" d="M337.5,94.4c-0.4,1.3-1,2.3-1.7,3.2c1.7,0.7,3.3,1.5,4.4,2.2l-0.7,0.8c-1.1-0.7-2.7-1.6-4.4-2.3
			c-1.4,1.2-3.4,1.9-6,2.4c-0.1-0.2-0.4-0.7-0.6-0.9c2.5-0.3,4.3-0.9,5.6-1.9c-1.3-0.5-2.7-1.1-3.9-1.4c0.4-0.5,0.9-1.3,1.3-2h-3.1
			v-0.9h3.6c0.5-0.9,0.9-1.7,1.2-2.5l1,0.2c-0.3,0.7-0.7,1.5-1.1,2.3h3.6c0.1-0.4,0.2-0.9,0.3-1.4l1.1,0.1c-0.1,0.4-0.2,0.9-0.3,1.3
			h2.6v0.9H337.5z M329.7,92.2h-0.9v-2.8h5.3c-0.2-0.5-0.5-1-0.7-1.5l1-0.3c0.3,0.5,0.7,1.2,0.9,1.7h4.9v2.8h-1v-1.9h-9.4V92.2z
			 M332.6,94.4c-0.4,0.6-0.7,1.1-1,1.6c1,0.3,2.2,0.7,3.3,1.2c0.7-0.7,1.2-1.6,1.6-2.8H332.6z"/>
		<path class="st0" d="M350.3,96.4c1.3,1.4,3.3,2.6,5.2,3.2c-0.2,0.2-0.5,0.5-0.6,0.8c-1.9-0.7-4-2.2-5.3-3.7v3.9h-0.9v-3.9
			c-1.3,1.5-3.4,2.9-5.2,3.6c-0.1-0.2-0.4-0.6-0.6-0.8c1.8-0.6,3.8-1.9,5.1-3.2h-3.5v-5.1h4.3v-1.2h-5.5v-0.9h5.5v-1.3h0.9v1.3h5.7
			v0.9h-5.7v1.2h4.5v5.1H350.3z M345.2,93.5h3.4v-1.4h-3.4V93.5z M345.2,95.7h3.4v-1.4h-3.4V95.7z M349.5,92.1v1.4h3.6v-1.4H349.5z
			 M353.1,94.2h-3.6v1.4h3.6V94.2z"/>
		<path class="st0" d="M369.2,89.5c-0.4,1.4-1.2,2.7-2.1,3.7c0.9,0.9,2,1.6,3.2,2.1c-0.2,0.2-0.4,0.5-0.6,0.8
			c-0.2-0.1-0.4-0.2-0.5-0.2v4.6h-0.9v-0.5h-3.7v0.5h-0.9v-4.7c-0.3,0.2-0.6,0.3-0.9,0.4c-0.1-0.2-0.4-0.5-0.5-0.7l0.1,0h-1.5v2.6
			l1.9-0.4l0.1,0.8c-1.9,0.5-3.9,0.9-5.3,1.3l-0.2-0.9l0.7-0.2V94h0.8v4.6l1.1-0.3v-5.7h-2v-4.2h4.5v3.8c1.1-1.1,2-2.7,2.6-4.4
			l0.9,0.2c-0.1,0.4-0.3,0.8-0.5,1.2h2.8l0.2,0L369.2,89.5z M358.9,91.9h2.8v-2.6h-2.8V91.9z M362.7,95.5c1.1-0.5,2.3-1.3,3.3-2.3
			c-0.5-0.7-1-1.4-1.4-2c-0.4,0.6-0.9,1.2-1.4,1.7c-0.1-0.1-0.4-0.4-0.7-0.5v0.3h-1.7v2.1h1.8V95.5z M368.7,95.6
			c-0.8-0.5-1.5-1.1-2.1-1.7c-0.7,0.7-1.4,1.3-2.2,1.7H368.7z M368.4,99.3v-2.8h-3.7v2.8H368.4z M365.2,90.1l-0.1,0.3
			c0.4,0.7,0.8,1.5,1.5,2.2c0.6-0.7,1.2-1.6,1.5-2.5H365.2z"/>
	</g>
	<g>
		<path class="st0" d="M371.2,220.2H179c-0.1,0-0.2-0.1-0.2-0.2s0.1-0.2,0.2-0.2h192.3c0.1,0,0.2,0.1,0.2,0.2
			S371.4,220.2,371.2,220.2z"/>
	</g>
	<g>
		<path class="st0" d="M41.7,9.2v7h-1v-0.9h-4.5v4.9h-1v-4.9h-4.5v1h-1V9.2h5.5V6.5h1v2.7H41.7z M35.1,14.3v-4.2h-4.5v4.2H35.1z
			 M40.6,14.3v-4.2h-4.5v4.2H40.6z"/>
		<path class="st0" d="M57.4,9.6v10.7h-1v-1.1H45.7V9.6h1v8.5H51V6.7h1v11.4h4.3V9.6H57.4z"/>
		<path class="st0" d="M66.5,16.4l0.1,0.9c-2,0.5-4.1,1.1-5.7,1.5l-0.3-1c0.9-0.2,2-0.5,3.3-0.8c0.4-1.6,0.8-4.3,1-6.2l1,0.2
			c-0.3,1.8-0.7,4.2-1.1,5.8L66.5,16.4z M60.8,9.4h5.8v0.9h-5.8V9.4z M62.3,11c0.4,1.8,0.7,4,0.8,5.5l-0.9,0.2
			c-0.1-1.5-0.4-3.7-0.7-5.5L62.3,11z M63.6,9.1c-0.2-0.6-0.6-1.6-1-2.3l0.8-0.3c0.5,0.7,0.9,1.7,1.1,2.3L63.6,9.1z M70.5,10.6v3.1
			h3.2v6.5h-1v-0.7H68v0.7h-1v-6.6h2.5V6.5h1v3.2h3.9v1H70.5z M72.7,14.7H68v4h4.7V14.7z"/>
	</g>
	<g>
		<path class="st0" d="M18.5,310.8c1.5,1.3,3.2,3.1,4,4.4l-0.9,0.6c-0.2-0.4-0.6-0.8-1-1.3c-8.8,0.5-9.7,0.5-10.2,0.7
			c0-0.2-0.2-0.7-0.3-1c0.3-0.1,0.7-0.4,1.2-0.9c0.5-0.5,2.3-2.4,3.5-4.3l1,0.5c-1.2,1.7-2.6,3.3-4,4.5l8-0.4
			c-0.7-0.8-1.5-1.6-2.3-2.3L18.5,310.8z M11.4,316.5H21v6.3h-1.1V322h-7.5v0.8h-1V316.5z M12.4,317.5v3.5h7.5v-3.5H12.4z"/>
		<path class="st0" d="M31.7,319.2l0.2,0.9c-2.2,0.9-4.5,1.9-6.3,2.6l-0.5-1c1.1-0.4,2.7-1,4.3-1.7v-6.2h-3.9v-1h3.9v-3.6h1v10.3
			L31.7,319.2z M36.8,321.2c0.7,0,0.8-0.7,0.9-3.7c0.3,0.2,0.7,0.4,1,0.5c-0.1,3.1-0.4,4.2-1.8,4.2h-2.1c-1.3,0-1.6-0.4-1.6-1.9v-11
			h1v3.6h4.3v1h-4.3v6.4c0,0.7,0.1,0.9,0.7,0.9H36.8z"/>
		<path class="st0" d="M54.8,320.6h-6.3v2.3h-1v-2.3h-6.2v-0.9h6.2v-1.3h-4.6v-5.8h4.6v-1.2h-5.7v-0.9h5.7V309h1v1.4h5.8v0.9h-5.8
			v1.2h4.7v5.8h-4.7v1.3h6.3V320.6z M43.9,315h3.6v-1.7h-3.6V315z M47.5,317.5v-1.7h-3.6v1.7H47.5z M48.5,313.3v1.7h3.7v-1.7H48.5z
			 M52.2,315.8h-3.7v1.7h3.7V315.8z"/>
		<path class="st0" d="M63,318.9l0.1,0.9c-2,0.5-4.1,1.1-5.7,1.5l-0.3-1c0.9-0.2,2-0.5,3.3-0.8c0.4-1.6,0.8-4.3,1-6.2l1,0.2
			c-0.3,1.8-0.7,4.2-1.1,5.8L63,318.9z M57.3,311.9h5.8v0.9h-5.8V311.9z M58.7,313.5c0.4,1.8,0.7,4,0.8,5.5l-0.9,0.2
			c-0.1-1.5-0.4-3.7-0.7-5.5L58.7,313.5z M60.1,311.6c-0.2-0.6-0.6-1.6-1-2.3l0.8-0.3c0.5,0.7,0.9,1.7,1.1,2.3L60.1,311.6z
			 M66.9,313.1v3.1h3.2v6.5h-1v-0.7h-4.7v0.7h-1v-6.6h2.5V309h1v3.2h3.9v1H66.9z M69.1,317.2h-4.7v4h4.7V317.2z"/>
		<path class="st0" d="M16.5,329.4h-3.3v8.4h-1.1v-8.4H8.9v-1h7.6V329.4z"/>
		<path class="st0" d="M23.5,337.8h-1v-0.9c-0.5,0.7-1.3,1.1-2.3,1.1c-1.8,0-3.2-1.4-3.2-3.3c0-1.9,1.4-3.3,3.2-3.3
			c1,0,1.8,0.4,2.3,1.1v-0.9h1V337.8z M18.1,334.6c0,1.3,0.9,2.4,2.3,2.4c1.3,0,2.3-1,2.3-2.4c0-1.3-0.9-2.4-2.3-2.4
			C19,332.2,18.1,333.3,18.1,334.6z"/>
		<path class="st0" d="M27.8,329.2c0,0.4-0.3,0.7-0.7,0.7c-0.4,0-0.7-0.3-0.7-0.7c0-0.4,0.3-0.7,0.7-0.7
			C27.5,328.5,27.8,328.8,27.8,329.2z M27.6,337.8h-1v-6.4h1V337.8z"/>
		<path class="st0" d="M37.1,334.6c0,1.9-1.4,3.3-3.2,3.3c-1,0-1.8-0.4-2.3-1.1v3.6h-1v-9.1h1v0.9c0.5-0.6,1.3-1.1,2.3-1.1
			C35.7,331.3,37.1,332.7,37.1,334.6z M31.6,334.6c0,1.4,0.9,2.4,2.3,2.4c1.4,0,2.3-1.1,2.3-2.4c0-1.3-0.9-2.4-2.3-2.4
			C32.5,332.2,31.6,333.3,31.6,334.6z"/>
		<path class="st0" d="M45.4,334.6c0,0.1,0,0.3,0,0.4h-5.1c0.1,1.4,1.1,2.1,2.3,2.1c0.8,0,1.5-0.3,2-0.8l0.5,0.7
			c-0.8,0.8-1.7,1-2.6,1c-1.9,0-3.2-1.3-3.2-3.3c0-2,1.3-3.3,3.2-3.3C44.1,331.3,45.3,332.7,45.4,334.6z M40.2,334.2h4.1
			c-0.1-1.2-0.9-2-2-2C41.2,332.2,40.4,333,40.2,334.2z"/>
		<path class="st0" d="M49.1,329.2c0,0.4-0.3,0.7-0.7,0.7c-0.4,0-0.7-0.3-0.7-0.7c0-0.4,0.3-0.7,0.7-0.7
			C48.8,328.5,49.1,328.8,49.1,329.2z M48.9,337.8h-1v-6.4h1V337.8z"/>
		<path class="st0" d="M66.3,337.8h-1.1v-8.2l-3.3,7.2h-1.1l-3.3-7.1v8.2h-1.1v-9.4H58l3.3,7.1l3.3-7.1h1.6V337.8z"/>
		<path class="st0" d="M75.5,337.8h-1v-0.9c-0.5,0.7-1.3,1.1-2.3,1.1c-1.8,0-3.2-1.4-3.2-3.3c0-1.9,1.4-3.3,3.2-3.3
			c1,0,1.8,0.4,2.3,1.1v-0.9h1V337.8z M70,334.6c0,1.3,0.9,2.4,2.3,2.4c1.3,0,2.3-1,2.3-2.4c0-1.3-0.9-2.4-2.3-2.4
			C70.9,332.2,70,333.3,70,334.6z"/>
		<path class="st0" d="M79.8,329.2c0,0.4-0.3,0.7-0.7,0.7c-0.4,0-0.7-0.3-0.7-0.7c0-0.4,0.3-0.7,0.7-0.7
			C79.4,328.5,79.8,328.8,79.8,329.2z M79.5,337.8h-1v-6.4h1V337.8z"/>
		<path class="st0" d="M88.4,333.9v4h-1v-3.6c0-1.2-0.7-1.9-1.8-1.9c-1.1,0-2,0.7-2,2v3.6h-1v-6.4h1v0.9c0.5-0.8,1.4-1,2.1-1
			C87.3,331.3,88.4,332.3,88.4,333.9z"/>
		<path class="st0" d="M101.9,330.2c-0.8-0.5-1.7-0.9-2.8-0.9c-1.4,0-2.4,0.6-2.4,1.7c0,0.9,0.7,1.4,2.2,1.5l0.9,0.1
			c1.6,0.2,2.9,0.8,2.9,2.5c0,1.9-1.7,2.8-3.7,2.8c-1.4,0-2.8-0.5-3.7-1.2l0.6-0.9c0.7,0.6,1.9,1,3.1,1c1.5,0,2.6-0.6,2.6-1.7
			c0-0.9-0.8-1.4-2.3-1.5l-0.9-0.1c-1.6-0.2-2.8-0.9-2.8-2.5c0-1.8,1.6-2.8,3.6-2.8c1.4,0,2.5,0.4,3.4,1L101.9,330.2z"/>
		<path class="st0" d="M109.6,332.3h-2.8v3.2c0,1,0.5,1.4,1.3,1.4c0.5,0,1-0.2,1.3-0.5l0.5,0.8c-0.5,0.4-1.1,0.6-1.9,0.6
			c-1.4,0-2.2-0.8-2.2-2.4v-3.2h-1.4v-0.9h1.4v-2h1v2h2.8V332.3z"/>
		<path class="st0" d="M118,337.8h-1v-0.9c-0.5,0.7-1.3,1.1-2.3,1.1c-1.8,0-3.2-1.4-3.2-3.3c0-1.9,1.4-3.3,3.2-3.3
			c1,0,1.8,0.4,2.3,1.1v-0.9h1V337.8z M112.5,334.6c0,1.3,0.9,2.4,2.3,2.4c1.3,0,2.3-1,2.3-2.4c0-1.3-0.9-2.4-2.3-2.4
			C113.4,332.2,112.5,333.3,112.5,334.6z"/>
		<path class="st0" d="M125.4,332.3h-2.8v3.2c0,1,0.5,1.4,1.3,1.4c0.5,0,1-0.2,1.3-0.5l0.5,0.8c-0.5,0.4-1.1,0.6-1.9,0.6
			c-1.4,0-2.2-0.8-2.2-2.4v-3.2h-1.4v-0.9h1.4v-2h1v2h2.8V332.3z"/>
		<path class="st0" d="M129,329.2c0,0.4-0.3,0.7-0.7,0.7c-0.4,0-0.7-0.3-0.7-0.7c0-0.4,0.3-0.7,0.7-0.7
			C128.7,328.5,129,328.8,129,329.2z M128.8,337.8h-1v-6.4h1V337.8z"/>
		<path class="st0" d="M138.1,334.6c0,1.9-1.4,3.3-3.4,3.3c-1.9,0-3.4-1.4-3.4-3.3c0-1.9,1.4-3.3,3.4-3.3
			C136.6,331.3,138.1,332.7,138.1,334.6z M132.4,334.6c0,1.4,1,2.4,2.3,2.4c1.3,0,2.3-1,2.3-2.4c0-1.4-1-2.4-2.3-2.4
			C133.4,332.2,132.4,333.2,132.4,334.6z"/>
		<path class="st0" d="M146.4,333.9v4h-1v-3.6c0-1.2-0.7-1.9-1.8-1.9c-1.1,0-2,0.7-2,2v3.6h-1v-6.4h1v0.9c0.5-0.8,1.4-1,2.1-1
			C145.4,331.3,146.4,332.3,146.4,333.9z"/>
	</g>
	<g>
		<path class="st1" d="M101.9,33.2c0,5-4.1,9.1-9.1,9.1c-5,0-9.1-4.1-9.1-9.1c0-5,4.1-9.1,9.1-9.1C97.8,24,101.9,28.1,101.9,33.2z"
			/>
		<path class="st0" d="M92.8,42.8c-5.3,0-9.6-4.3-9.6-9.6c0-5.3,4.3-9.6,9.6-9.6c5.3,0,9.6,4.3,9.6,9.6
			C102.4,38.5,98.1,42.8,92.8,42.8z M92.8,24.5c-4.8,0-8.6,3.9-8.6,8.6c0,4.8,3.9,8.6,8.6,8.6c4.8,0,8.6-3.9,8.6-8.6
			C101.4,28.4,97.5,24.5,92.8,24.5z"/>
	</g>
	<g>
		<path class="st1" d="M101.9,298.9c0,5-4.1,9.1-9.1,9.1c-5,0-9.1-4.1-9.1-9.1c0-5,4.1-9.1,9.1-9.1
			C97.8,289.8,101.9,293.9,101.9,298.9z"/>
		<path class="st0" d="M92.8,308.6c-5.3,0-9.6-4.3-9.6-9.6c0-5.3,4.3-9.6,9.6-9.6c5.3,0,9.6,4.3,9.6,9.6
			C102.4,304.3,98.1,308.6,92.8,308.6z M92.8,290.3c-4.8,0-8.6,3.9-8.6,8.6s3.9,8.6,8.6,8.6c4.8,0,8.6-3.9,8.6-8.6
			S97.5,290.3,92.8,290.3z"/>
	</g>
	<g>
		<path class="st0" d="M223,176.4c0,4.1-3.3,7.4-7.4,7.4c-4.1,0-7.4-3.3-7.4-7.4c0-4.1,3.3-7.4,7.4-7.4
			C219.7,169,223,172.3,223,176.4z"/>
		<path class="st0" d="M215.6,184.3c-4.4,0-7.9-3.5-7.9-7.9c0-4.4,3.5-7.9,7.9-7.9c4.4,0,7.9,3.5,7.9,7.9
			C223.5,180.7,220,184.3,215.6,184.3z M215.6,169.5c-3.8,0-6.9,3.1-6.9,6.9c0,3.8,3.1,6.9,6.9,6.9c3.8,0,6.9-3.1,6.9-6.9
			C222.5,172.6,219.5,169.5,215.6,169.5z"/>
	</g>
	<g>
		<rect x="81.2" y="17.2" transform="matrix(0.7075 -0.7067 0.7067 0.7075 7.316 64.2996)" class="st0" width="0.2" height="12.2"/>
	</g>
	<g>
		<polygon class="st0" points="78.2,314 78,313.8 86.7,305.2 86.8,305.4 		"/>
	</g>
	<g>
		<g>
			<path class="st1" d="M92.8,49.6c-0.3,0-0.5-0.2-0.5-0.5v-0.5c0-0.3,0.2-0.5,0.5-0.5s0.5,0.2,0.5,0.5v0.5
				C93.3,49.4,93.1,49.6,92.8,49.6z"/>
		</g>
		<g>
			<path class="st1" d="M92.8,282.9c-0.3,0-0.5-0.2-0.5-0.5v-1c0-0.3,0.2-0.5,0.5-0.5s0.5,0.2,0.5,0.5v1
				C93.3,282.6,93.1,282.9,92.8,282.9z M92.8,278.9c-0.3,0-0.5-0.2-0.5-0.5v-1c0-0.3,0.2-0.5,0.5-0.5s0.5,0.2,0.5,0.5v1
				C93.3,278.6,93.1,278.9,92.8,278.9z M92.8,274.8c-0.3,0-0.5-0.2-0.5-0.5v-1c0-0.3,0.2-0.5,0.5-0.5s0.5,0.2,0.5,0.5v1
				C93.3,274.6,93.1,274.8,92.8,274.8z M92.8,270.8c-0.3,0-0.5-0.2-0.5-0.5v-1c0-0.3,0.2-0.5,0.5-0.5s0.5,0.2,0.5,0.5v1
				C93.3,270.6,93.1,270.8,92.8,270.8z M92.8,266.8c-0.3,0-0.5-0.2-0.5-0.5v-1c0-0.3,0.2-0.5,0.5-0.5s0.5,0.2,0.5,0.5v1
				C93.3,266.6,93.1,266.8,92.8,266.8z M92.8,262.8c-0.3,0-0.5-0.2-0.5-0.5v-1c0-0.3,0.2-0.5,0.5-0.5s0.5,0.2,0.5,0.5v1
				C93.3,262.5,93.1,262.8,92.8,262.8z M92.8,258.7c-0.3,0-0.5-0.2-0.5-0.5v-1c0-0.3,0.2-0.5,0.5-0.5s0.5,0.2,0.5,0.5v1
				C93.3,258.5,93.1,258.7,92.8,258.7z M92.8,254.7c-0.3,0-0.5-0.2-0.5-0.5v-1c0-0.3,0.2-0.5,0.5-0.5s0.5,0.2,0.5,0.5v1
				C93.3,254.5,93.1,254.7,92.8,254.7z M92.8,250.7c-0.3,0-0.5-0.2-0.5-0.5v-1c0-0.3,0.2-0.5,0.5-0.5s0.5,0.2,0.5,0.5v1
				C93.3,250.5,93.1,250.7,92.8,250.7z M92.8,246.7c-0.3,0-0.5-0.2-0.5-0.5v-1c0-0.3,0.2-0.5,0.5-0.5s0.5,0.2,0.5,0.5v1
				C93.3,246.5,93.1,246.7,92.8,246.7z M92.8,242.7c-0.3,0-0.5-0.2-0.5-0.5v-1c0-0.3,0.2-0.5,0.5-0.5s0.5,0.2,0.5,0.5v1
				C93.3,242.4,93.1,242.7,92.8,242.7z M92.8,238.6c-0.3,0-0.5-0.2-0.5-0.5v-1c0-0.3,0.2-0.5,0.5-0.5s0.5,0.2,0.5,0.5v1
				C93.3,238.4,93.1,238.6,92.8,238.6z M92.8,234.6c-0.3,0-0.5-0.2-0.5-0.5v-1c0-0.3,0.2-0.5,0.5-0.5s0.5,0.2,0.5,0.5v1
				C93.3,234.4,93.1,234.6,92.8,234.6z M92.8,230.6c-0.3,0-0.5-0.2-0.5-0.5v-1c0-0.3,0.2-0.5,0.5-0.5s0.5,0.2,0.5,0.5v1
				C93.3,230.4,93.1,230.6,92.8,230.6z M92.8,226.6c-0.3,0-0.5-0.2-0.5-0.5v-1c0-0.3,0.2-0.5,0.5-0.5s0.5,0.2,0.5,0.5v1
				C93.3,226.3,93.1,226.6,92.8,226.6z M92.8,222.5c-0.3,0-0.5-0.2-0.5-0.5v-1c0-0.3,0.2-0.5,0.5-0.5s0.5,0.2,0.5,0.5v1
				C93.3,222.3,93.1,222.5,92.8,222.5z M92.8,218.5c-0.3,0-0.5-0.2-0.5-0.5v-1c0-0.3,0.2-0.5,0.5-0.5s0.5,0.2,0.5,0.5v1
				C93.3,218.3,93.1,218.5,92.8,218.5z M92.8,214.5c-0.3,0-0.5-0.2-0.5-0.5v-1c0-0.3,0.2-0.5,0.5-0.5s0.5,0.2,0.5,0.5v1
				C93.3,214.3,93.1,214.5,92.8,214.5z M92.8,210.5c-0.3,0-0.5-0.2-0.5-0.5v-1c0-0.3,0.2-0.5,0.5-0.5s0.5,0.2,0.5,0.5v1
				C93.3,210.3,93.1,210.5,92.8,210.5z M92.8,206.5c-0.3,0-0.5-0.2-0.5-0.5v-1c0-0.3,0.2-0.5,0.5-0.5s0.5,0.2,0.5,0.5v1
				C93.3,206.2,93.1,206.5,92.8,206.5z M92.8,202.4c-0.3,0-0.5-0.2-0.5-0.5v-1c0-0.3,0.2-0.5,0.5-0.5s0.5,0.2,0.5,0.5v1
				C93.3,202.2,93.1,202.4,92.8,202.4z M92.8,198.4c-0.3,0-0.5-0.2-0.5-0.5v-1c0-0.3,0.2-0.5,0.5-0.5s0.5,0.2,0.5,0.5v1
				C93.3,198.2,93.1,198.4,92.8,198.4z M92.8,194.4c-0.3,0-0.5-0.2-0.5-0.5v-1c0-0.3,0.2-0.5,0.5-0.5s0.5,0.2,0.5,0.5v1
				C93.3,194.2,93.1,194.4,92.8,194.4z M92.8,190.4c-0.3,0-0.5-0.2-0.5-0.5v-1c0-0.3,0.2-0.5,0.5-0.5s0.5,0.2,0.5,0.5v1
				C93.3,190.1,93.1,190.4,92.8,190.4z M92.8,186.3c-0.3,0-0.5-0.2-0.5-0.5v-1c0-0.3,0.2-0.5,0.5-0.5s0.5,0.2,0.5,0.5v1
				C93.3,186.1,93.1,186.3,92.8,186.3z M92.8,182.3c-0.3,0-0.5-0.2-0.5-0.5v-1c0-0.3,0.2-0.5,0.5-0.5s0.5,0.2,0.5,0.5v1
				C93.3,182.1,93.1,182.3,92.8,182.3z M92.8,178.3c-0.3,0-0.5-0.2-0.5-0.5v-1c0-0.3,0.2-0.5,0.5-0.5s0.5,0.2,0.5,0.5v1
				C93.3,178.1,93.1,178.3,92.8,178.3z M92.8,174.3c-0.3,0-0.5-0.2-0.5-0.5v-1c0-0.3,0.2-0.5,0.5-0.5s0.5,0.2,0.5,0.5v1
				C93.3,174.1,93.1,174.3,92.8,174.3z M92.8,170.3c-0.3,0-0.5-0.2-0.5-0.5v-1c0-0.3,0.2-0.5,0.5-0.5s0.5,0.2,0.5,0.5v1
				C93.3,170,93.1,170.3,92.8,170.3z M92.8,166.2c-0.3,0-0.5-0.2-0.5-0.5v-1c0-0.3,0.2-0.5,0.5-0.5s0.5,0.2,0.5,0.5v1
				C93.3,166,93.1,166.2,92.8,166.2z M92.8,162.2c-0.3,0-0.5-0.2-0.5-0.5v-1c0-0.3,0.2-0.5,0.5-0.5s0.5,0.2,0.5,0.5v1
				C93.3,162,93.1,162.2,92.8,162.2z M92.8,158.2c-0.3,0-0.5-0.2-0.5-0.5v-1c0-0.3,0.2-0.5,0.5-0.5s0.5,0.2,0.5,0.5v1
				C93.3,158,93.1,158.2,92.8,158.2z M92.8,154.2c-0.3,0-0.5-0.2-0.5-0.5v-1c0-0.3,0.2-0.5,0.5-0.5s0.5,0.2,0.5,0.5v1
				C93.3,153.9,93.1,154.2,92.8,154.2z M92.8,150.1c-0.3,0-0.5-0.2-0.5-0.5v-1c0-0.3,0.2-0.5,0.5-0.5s0.5,0.2,0.5,0.5v1
				C93.3,149.9,93.1,150.1,92.8,150.1z M92.8,146.1c-0.3,0-0.5-0.2-0.5-0.5v-1c0-0.3,0.2-0.5,0.5-0.5s0.5,0.2,0.5,0.5v1
				C93.3,145.9,93.1,146.1,92.8,146.1z M92.8,142.1c-0.3,0-0.5-0.2-0.5-0.5v-1c0-0.3,0.2-0.5,0.5-0.5s0.5,0.2,0.5,0.5v1
				C93.3,141.9,93.1,142.1,92.8,142.1z M92.8,138.1c-0.3,0-0.5-0.2-0.5-0.5v-1c0-0.3,0.2-0.5,0.5-0.5s0.5,0.2,0.5,0.5v1
				C93.3,137.9,93.1,138.1,92.8,138.1z M92.8,134.1c-0.3,0-0.5-0.2-0.5-0.5v-1c0-0.3,0.2-0.5,0.5-0.5s0.5,0.2,0.5,0.5v1
				C93.3,133.8,93.1,134.1,92.8,134.1z M92.8,130c-0.3,0-0.5-0.2-0.5-0.5v-1c0-0.3,0.2-0.5,0.5-0.5s0.5,0.2,0.5,0.5v1
				C93.3,129.8,93.1,130,92.8,130z M92.8,126c-0.3,0-0.5-0.2-0.5-0.5v-1c0-0.3,0.2-0.5,0.5-0.5s0.5,0.2,0.5,0.5v1
				C93.3,125.8,93.1,126,92.8,126z M92.8,122c-0.3,0-0.5-0.2-0.5-0.5v-1c0-0.3,0.2-0.5,0.5-0.5s0.5,0.2,0.5,0.5v1
				C93.3,121.8,93.1,122,92.8,122z M92.8,118c-0.3,0-0.5-0.2-0.5-0.5v-1c0-0.3,0.2-0.5,0.5-0.5s0.5,0.2,0.5,0.5v1
				C93.3,117.7,93.1,118,92.8,118z M92.8,113.9c-0.3,0-0.5-0.2-0.5-0.5v-1c0-0.3,0.2-0.5,0.5-0.5s0.5,0.2,0.5,0.5v1
				C93.3,113.7,93.1,113.9,92.8,113.9z M92.8,109.9c-0.3,0-0.5-0.2-0.5-0.5v-1c0-0.3,0.2-0.5,0.5-0.5s0.5,0.2,0.5,0.5v1
				C93.3,109.7,93.1,109.9,92.8,109.9z M92.8,105.9c-0.3,0-0.5-0.2-0.5-0.5v-1c0-0.3,0.2-0.5,0.5-0.5s0.5,0.2,0.5,0.5v1
				C93.3,105.7,93.1,105.9,92.8,105.9z M92.8,101.9c-0.3,0-0.5-0.2-0.5-0.5v-1c0-0.3,0.2-0.5,0.5-0.5s0.5,0.2,0.5,0.5v1
				C93.3,101.7,93.1,101.9,92.8,101.9z M92.8,97.9c-0.3,0-0.5-0.2-0.5-0.5v-1c0-0.3,0.2-0.5,0.5-0.5s0.5,0.2,0.5,0.5v1
				C93.3,97.6,93.1,97.9,92.8,97.9z M92.8,93.8c-0.3,0-0.5-0.2-0.5-0.5v-1c0-0.3,0.2-0.5,0.5-0.5s0.5,0.2,0.5,0.5v1
				C93.3,93.6,93.1,93.8,92.8,93.8z M92.8,89.8c-0.3,0-0.5-0.2-0.5-0.5v-1c0-0.3,0.2-0.5,0.5-0.5s0.5,0.2,0.5,0.5v1
				C93.3,89.6,93.1,89.8,92.8,89.8z M92.8,85.8c-0.3,0-0.5-0.2-0.5-0.5v-1c0-0.3,0.2-0.5,0.5-0.5s0.5,0.2,0.5,0.5v1
				C93.3,85.6,93.1,85.8,92.8,85.8z M92.8,81.8c-0.3,0-0.5-0.2-0.5-0.5v-1c0-0.3,0.2-0.5,0.5-0.5s0.5,0.2,0.5,0.5v1
				C93.3,81.5,93.1,81.8,92.8,81.8z M92.8,77.8c-0.3,0-0.5-0.2-0.5-0.5v-1c0-0.3,0.2-0.5,0.5-0.5s0.5,0.2,0.5,0.5v1
				C93.3,77.5,93.1,77.8,92.8,77.8z M92.8,73.7c-0.3,0-0.5-0.2-0.5-0.5v-1c0-0.3,0.2-0.5,0.5-0.5s0.5,0.2,0.5,0.5v1
				C93.3,73.5,93.1,73.7,92.8,73.7z M92.8,69.7c-0.3,0-0.5-0.2-0.5-0.5v-1c0-0.3,0.2-0.5,0.5-0.5s0.5,0.2,0.5,0.5v1
				C93.3,69.5,93.1,69.7,92.8,69.7z M92.8,65.7c-0.3,0-0.5-0.2-0.5-0.5v-1c0-0.3,0.2-0.5,0.5-0.5s0.5,0.2,0.5,0.5v1
				C93.3,65.5,93.1,65.7,92.8,65.7z M92.8,61.7c-0.3,0-0.5-0.2-0.5-0.5v-1c0-0.3,0.2-0.5,0.5-0.5s0.5,0.2,0.5,0.5v1
				C93.3,61.4,93.1,61.7,92.8,61.7z M92.8,57.6c-0.3,0-0.5-0.2-0.5-0.5v-1c0-0.3,0.2-0.5,0.5-0.5s0.5,0.2,0.5,0.5v1
				C93.3,57.4,93.1,57.6,92.8,57.6z M92.8,53.6c-0.3,0-0.5-0.2-0.5-0.5v-1c0-0.3,0.2-0.5,0.5-0.5s0.5,0.2,0.5,0.5v1
				C93.3,53.4,93.1,53.6,92.8,53.6z"/>
		</g>
		<g>
			<path class="st1" d="M92.8,286.4c-0.3,0-0.5-0.2-0.5-0.5v-0.5c0-0.3,0.2-0.5,0.5-0.5s0.5,0.2,0.5,0.5v0.5
				C93.3,286.2,93.1,286.4,92.8,286.4z"/>
		</g>
	</g>
	<g>
		<g>
			<path class="st1" d="M92.8,8.4c-0.3,0-0.5-0.2-0.5-0.5V7.4c0-0.3,0.2-0.5,0.5-0.5s0.5,0.2,0.5,0.5v0.5
				C93.3,8.2,93.1,8.4,92.8,8.4z"/>
		</g>
		<g>
			<path class="st1" d="M92.8,16.1c-0.3,0-0.5-0.2-0.5-0.5v-1c0-0.3,0.2-0.5,0.5-0.5s0.5,0.2,0.5,0.5v1
				C93.3,15.9,93.1,16.1,92.8,16.1z M92.8,12.3c-0.3,0-0.5-0.2-0.5-0.5v-1c0-0.3,0.2-0.5,0.5-0.5s0.5,0.2,0.5,0.5v1
				C93.3,12.1,93.1,12.3,92.8,12.3z"/>
		</g>
		<g>
			<path class="st1" d="M92.8,19.5c-0.3,0-0.5-0.2-0.5-0.5v-0.5c0-0.3,0.2-0.5,0.5-0.5s0.5,0.2,0.5,0.5V19
				C93.3,19.3,93.1,19.5,92.8,19.5z"/>
		</g>
	</g>
</g>
</svg>
